<svg width="17" height="17" viewBox="0 0 17 17" fill="none" xmlns="http://www.w3.org/2000/svg">
<path d="M0.330818 7.90625C0.330818 8.3125 0.487068 8.6875 0.768318 8.96875L7.36207 15.5625C7.95582 16.1562 8.92457 16.1562 9.48707 15.5625L15.8621 9.1875C16.4558 8.625 16.4558 7.65625 15.8621 7.0625L9.26832 0.46875C8.98707 0.1875 8.61207 0 8.20582 0H1.83082C0.987068 0 0.330818 0.6875 0.330818 1.5V7.90625ZM3.83082 2C4.64332 2 5.33082 2.6875 5.33082 3.5C5.33082 4.34375 4.64332 5 3.83082 5C2.98707 5 2.33082 4.34375 2.33082 3.5C2.33082 2.6875 2.98707 2 3.83082 2Z" fill="#FA8C16"/>
</svg>
