<svg width="20" height="17" viewBox="0 0 20 17" fill="none" xmlns="http://www.w3.org/2000/svg">
    <path d="M19.5312 9.1875C20.125 8.625 20.125 7.65625 19.5312 7.0625L12.9375 0.46875C12.6562 0.1875 12.2812 0 11.875 0H10.3438L18.5 8.125L11.0312 15.5625C11.625 16.1562 12.5938 16.1562 13.1562 15.5625L19.5312 9.1875ZM15.5312 9.1875C16.125 8.625 16.125 7.65625 15.5312 7.0625L8.9375 0.46875C8.65625 0.1875 8.28125 0 7.875 0H1.5C0.65625 0 0 0.6875 0 1.5V7.90625C0 8.3125 0.15625 8.6875 0.4375 8.96875L7.03125 15.5625C7.34375 15.875 7.71875 16 8.09375 16C8.5 16 8.875 15.875 9.15625 15.5625L15.5312 9.1875ZM14.5 8.125L8.09375 14.5L1.5 7.90625V1.5H7.875L14.5 8.125ZM4.5 3C3.65625 3 3 3.6875 3 4.5C3 5.34375 3.65625 6 4.5 6C5.3125 6 6 5.34375 6 4.5C6 3.6875 5.3125 3 4.5 3Z"
          fill="#808B9A"/>
</svg>
