<svg width="17" height="17" viewBox="0 0 17 17" fill="none" xmlns="http://www.w3.org/2000/svg">
<path d="M15.8617 7.0625L9.26795 0.46875C8.9867 0.1875 8.6117 0 8.20545 0H1.83045C0.986702 0 0.330452 0.6875 0.330452 1.5V7.90625C0.330452 8.3125 0.486702 8.6875 0.767952 8.96875L7.3617 15.5625C7.95545 16.1562 8.9242 16.1562 9.4867 15.5625L15.8617 9.1875C16.4555 8.625 16.4555 7.65625 15.8617 7.0625ZM8.4242 14.5L1.83045 7.90625V1.5H8.20545L14.8305 8.125L8.4242 14.5ZM6.33045 4.5C6.33045 3.6875 5.64295 3 4.83045 3C3.9867 3 3.33045 3.6875 3.33045 4.5C3.33045 5.34375 3.9867 6 4.83045 6C5.64295 6 6.33045 5.34375 6.33045 4.5Z" fill="#233145"/>
</svg>
